<!-- Generated by IcoMoon.io -->
<svg version="1.1" xmlns="http://www.w3.org/2000/svg" width="1263" height="1024" viewBox="0 0 1263 1024">
<title></title>
<g id="icomoon-ignore">
</g>
<path fill="#000" d="M1260.308 121.226c-46.868 20.559-96.809 34.186-148.876 40.802 53.565-31.98 94.447-82.235 113.664-142.809-49.937 29.775-105.076 50.806-163.84 62.543-47.418-50.491-115.002-81.762-188.73-81.762-143.046 0-258.205 116.106-258.205 258.442 0 20.48 1.734 40.172 5.987 58.919-214.804-10.476-404.875-113.427-532.56-270.257-22.292 38.676-35.367 82.944-35.367 130.599 0 89.482 46.080 168.801 114.767 214.724-41.511-0.788-82.235-12.838-116.736-31.823 0 0.788 0 1.812 0 2.836 0 125.559 89.561 229.847 207.006 253.873-21.032 5.748-43.953 8.506-67.742 8.506-16.541 0-33.24-0.945-48.915-4.41 33.477 102.321 128.472 177.545 241.427 179.988-87.906 68.765-199.522 110.196-320.354 110.196-21.189 0-41.511-0.945-61.834-3.543 114.452 73.807 250.092 115.948 396.367 115.948 475.45 0 735.389-393.847 735.389-735.232 0-11.422-0.393-22.449-0.945-33.398 51.279-36.392 94.365-81.841 129.498-134.144z"></path>
</svg>
