<!-- Generated by IcoMoon.io -->
<svg version="1.1" xmlns="http://www.w3.org/2000/svg" width="1024" height="1024" viewBox="0 0 1024 1024">
<title></title>
<g id="icomoon-ignore">
</g>
<path fill="#000" d="M741.407 0h-458.826c-155.815 0-282.581 126.772-282.581 282.587v458.826c0 155.822 126.766 282.586 282.581 282.586h458.826c155.829 0 282.593-126.771 282.593-282.586v-458.826c0.007-155.815-126.764-282.587-282.593-282.587zM933.151 741.414c0 105.725-86.013 191.734-191.737 191.734h-458.833c-105.718 0.003-191.727-86.009-191.727-191.734v-458.826c0-105.718 86.008-191.733 191.727-191.733h458.826c105.725 0 191.741 86.015 191.741 191.733v458.826h0.003z"></path>
<path fill="#000" d="M512 248.154c-145.493 0-263.858 118.366-263.858 263.86 0 145.487 118.365 263.847 263.858 263.847s263.861-118.361 263.861-263.847c0-145.493-118.368-263.86-263.861-263.86zM512 684.998c-95.389 0-173.004-77.599-173.004-172.991 0-95.396 77.608-173.004 173.004-173.004s173.005 77.609 173.005 173.004c0 95.392-77.612 172.991-173.005 172.991z"></path>
<path fill="#000" d="M786.927 171.117c-17.504 0-34.7 7.087-47.063 19.503-12.421 12.356-19.565 29.558-19.565 47.123 0 17.511 7.148 34.706 19.565 47.123 12.356 12.356 29.559 19.503 47.063 19.503 17.565 0 34.707-7.147 47.121-19.503 12.418-12.417 19.504-29.619 19.504-47.123 0-17.565-7.086-34.767-19.504-47.123-12.356-12.417-29.556-19.503-47.121-19.503z"></path>
</svg>
