<!-- Generated by IcoMoon.io -->
<svg version="1.1" xmlns="http://www.w3.org/2000/svg" width="1024" height="1024" viewBox="0 0 1024 1024">
<title></title>
<g id="icomoon-ignore">
</g>
<path fill="#000" d="M874.001 0h-724.001c-82.703 0-150 67.297-150 150v724.001c0 82.702 67.297 149.999 150 149.999h724.001c82.702 0 149.999-67.297 149.999-149.999v-724.001c0-82.703-67.297-150-149.999-150zM362.001 812.001h-120.001v-420h120.001v420zM362.001 332h-120.001v-120h120.001v120zM782.001 812.001h-120.003v-240.002c0-33.079-26.921-60-60-60s-60 26.921-60 60v240.002h-119.999v-420h119.999v22.617c31.437-9.772 51.859-22.617 89.999-22.617 81.384 0.085 150.002 73.093 150.002 159.375v260.625z"></path>
</svg>
